<svg width="30" height="30" viewBox="0 0 30 30" fill="none" xmlns="http://www.w3.org/2000/svg">
<path d="M10.5 3C11.3297 3 12 3.67031 12 4.5V6H18V4.5C18 3.67031 18.6703 3 19.5 3C20.3297 3 21 3.67031 21 4.5V6H22.5C24.1547 6 25.5 7.34531 25.5 9V22.5C25.5 24.1547 24.1547 25.5 22.5 25.5H7.5C5.84531 25.5 4.5 24.1547 4.5 22.5V9C4.5 7.34531 5.84531 6 7.5 6H9V4.5C9 3.67031 9.67031 3 10.5 3ZM10.5 15C9.67031 15 9 15.6703 9 16.5V19.5C9 20.3297 9.67031 21 10.5 21H13.5C14.3297 21 15 20.3297 15 19.5V16.5C15 15.6703 14.3297 15 13.5 15H10.5Z" fill="#2C5A75"/>
</svg>
