<svg width="14" height="14" viewBox="0 0 14 14" fill="none" xmlns="http://www.w3.org/2000/svg">
<path d="M5.5999 2.1C5.5999 1.71281 5.91271 1.4 6.2999 1.4H7.6999C8.08709 1.4 8.3999 1.71281 8.3999 2.1V3.5C8.3999 3.88719 8.08709 4.2 7.6999 4.2H6.2999C5.91271 4.2 5.5999 3.88719 5.5999 3.5V2.1ZM6.2999 9.8H7.6999C8.08709 9.8 8.3999 10.1128 8.3999 10.5V11.9C8.3999 12.2872 8.08709 12.6 7.6999 12.6H6.2999C5.91271 12.6 5.5999 12.2872 5.5999 11.9V10.5C5.5999 10.1128 5.91271 9.8 6.2999 9.8ZM10.4999 9.8H11.8999C12.2871 9.8 12.5999 10.1128 12.5999 10.5V11.9C12.5999 12.2872 12.2871 12.6 11.8999 12.6H10.4999C10.1127 12.6 9.7999 12.2872 9.7999 11.9V10.5C9.7999 10.1128 10.1127 9.8 10.4999 9.8ZM8.3999 5.6H9.7999C10.1871 5.6 10.4999 5.91281 10.4999 6.3V7.7C10.4999 8.08719 10.1871 8.4 9.7999 8.4H8.3999C8.01271 8.4 7.6999 8.08719 7.6999 7.7V6.3C7.6999 5.91281 8.01271 5.6 8.3999 5.6ZM4.40553 5.51469C4.67896 5.24125 5.12303 5.24125 5.39646 5.51469L6.3874 6.50562C6.66084 6.77906 6.66084 7.22312 6.3874 7.49656L5.39646 8.4875C5.12303 8.76094 4.67896 8.76094 4.40553 8.4875L3.41459 7.49437C3.14115 7.22094 3.14115 6.77687 3.41459 6.50344L4.40553 5.5125V5.51469ZM2.0999 9.8H3.4999C3.88709 9.8 4.1999 10.1128 4.1999 10.5V11.9C4.1999 12.2872 3.88709 12.6 3.4999 12.6H2.0999C1.71271 12.6 1.3999 12.2872 1.3999 11.9V10.5C1.3999 10.1128 1.71271 9.8 2.0999 9.8Z" fill="#F0FBFF"/>
</svg>
