<svg width="26" height="26" viewBox="0 0 26 26" fill="none" xmlns="http://www.w3.org/2000/svg">
<path d="M6.50002 3.89999C5.06596 3.89999 3.90002 5.06593 3.90002 6.49999V19.5C3.90002 20.9341 5.06596 22.1 6.50002 22.1H19.5C20.9341 22.1 22.1 20.9341 22.1 19.5V6.49999C22.1 5.06593 20.9341 3.89999 19.5 3.89999H6.50002ZM17.1356 8.27531L17.7207 8.86031C18.3544 9.49406 18.3544 10.5219 17.7207 11.1597L16.7538 12.1266L13.8694 9.24218L14.8363 8.27531C15.47 7.64156 16.4978 7.64156 17.1356 8.27531ZM8.77096 14.3406L12.4881 10.6194L15.3725 13.5037L11.6513 17.2209C11.4847 17.3875 11.2775 17.5053 11.046 17.5622L8.6044 18.1716C8.38096 18.2284 8.1494 18.1634 7.9869 18.0009C7.8244 17.8384 7.7594 17.6069 7.81627 17.3834L8.42565 14.9419C8.48252 14.7144 8.60034 14.5031 8.7669 14.3366L8.77096 14.3406Z" fill="#427898"/>
</svg>
