<svg width="30" height="30" viewBox="0 0 30 30" fill="none" xmlns="http://www.w3.org/2000/svg">
<path d="M15 23.25C16.0359 23.25 16.875 24.0891 16.875 25.125C16.875 26.1609 16.0359 27 15 27C13.9641 27 13.125 26.1609 13.125 25.125C13.125 24.0891 13.9641 23.25 15 23.25ZM15 3C16.2422 3 17.25 4.00781 17.25 5.25C17.25 5.27813 17.25 5.30156 17.25 5.32969L16.5 19.5797C16.4578 20.3766 15.7969 21 15 21C14.2031 21 13.5469 20.3766 13.5 19.5797L12.75 5.32969C12.75 5.30156 12.75 5.27813 12.75 5.25C12.75 4.00781 13.7578 3 15 3Z" fill="#2C5A75"/>
</svg>
