<svg width="18" height="18" viewBox="0 0 18 18" fill="none" xmlns="http://www.w3.org/2000/svg">
<path fill-rule="evenodd" clip-rule="evenodd" d="M2.25 2.8125C2.10082 2.8125 1.95774 2.87176 1.85225 2.97725C1.74676 3.08274 1.6875 3.22582 1.6875 3.375V4.5C1.6875 4.64918 1.74676 4.79226 1.85225 4.89775C1.95774 5.00324 2.10082 5.0625 2.25 5.0625H3.375C3.52418 5.0625 3.66726 5.00324 3.77275 4.89775C3.87824 4.79226 3.9375 4.64918 3.9375 4.5V3.375C3.9375 3.22582 3.87824 3.08274 3.77275 2.97725C3.66726 2.87176 3.52418 2.8125 3.375 2.8125H2.25ZM3.375 3.375H2.25V4.5H3.375V3.375Z" fill="#E8EFFF"/>
<path d="M5.625 3.9375C5.625 3.78832 5.68426 3.64524 5.78975 3.53975C5.89524 3.43426 6.03832 3.375 6.1875 3.375H16.3125C16.4617 3.375 16.6048 3.43426 16.7102 3.53975C16.8157 3.64524 16.875 3.78832 16.875 3.9375C16.875 4.08668 16.8157 4.22976 16.7102 4.33525C16.6048 4.44074 16.4617 4.5 16.3125 4.5H6.1875C6.03832 4.5 5.89524 4.44074 5.78975 4.33525C5.68426 4.22976 5.625 4.08668 5.625 3.9375ZM6.1875 7.875C6.03832 7.875 5.89524 7.93426 5.78975 8.03975C5.68426 8.14524 5.625 8.28832 5.625 8.4375C5.625 8.58668 5.68426 8.72976 5.78975 8.83525C5.89524 8.94074 6.03832 9 6.1875 9H16.3125C16.4617 9 16.6048 8.94074 16.7102 8.83525C16.8157 8.72976 16.875 8.58668 16.875 8.4375C16.875 8.28832 16.8157 8.14524 16.7102 8.03975C16.6048 7.93426 16.4617 7.875 16.3125 7.875H6.1875ZM6.1875 12.375C6.03832 12.375 5.89524 12.4343 5.78975 12.5398C5.68426 12.6452 5.625 12.7883 5.625 12.9375C5.625 13.0867 5.68426 13.2298 5.78975 13.3352C5.89524 13.4407 6.03832 13.5 6.1875 13.5H16.3125C16.4617 13.5 16.6048 13.4407 16.7102 13.3352C16.8157 13.2298 16.875 13.0867 16.875 12.9375C16.875 12.7883 16.8157 12.6452 16.7102 12.5398C16.6048 12.4343 16.4617 12.375 16.3125 12.375H6.1875Z" fill="#E8EFFF"/>
<path fill-rule="evenodd" clip-rule="evenodd" d="M1.6875 7.875C1.6875 7.72582 1.74676 7.58274 1.85225 7.47725C1.95774 7.37176 2.10082 7.3125 2.25 7.3125H3.375C3.52418 7.3125 3.66726 7.37176 3.77275 7.47725C3.87824 7.58274 3.9375 7.72582 3.9375 7.875V9C3.9375 9.14918 3.87824 9.29226 3.77275 9.39775C3.66726 9.50324 3.52418 9.5625 3.375 9.5625H2.25C2.10082 9.5625 1.95774 9.50324 1.85225 9.39775C1.74676 9.29226 1.6875 9.14918 1.6875 9V7.875ZM2.25 7.875H3.375V9H2.25V7.875ZM2.25 11.8125C2.10082 11.8125 1.95774 11.8718 1.85225 11.9773C1.74676 12.0827 1.6875 12.2258 1.6875 12.375V13.5C1.6875 13.6492 1.74676 13.7923 1.85225 13.8977C1.95774 14.0032 2.10082 14.0625 2.25 14.0625H3.375C3.52418 14.0625 3.66726 14.0032 3.77275 13.8977C3.87824 13.7923 3.9375 13.6492 3.9375 13.5V12.375C3.9375 12.2258 3.87824 12.0827 3.77275 11.9773C3.66726 11.8718 3.52418 11.8125 3.375 11.8125H2.25ZM3.375 12.375H2.25V13.5H3.375V12.375Z" fill="#E8EFFF"/>
</svg>
