<svg width="63" height="63" viewBox="0 0 63 63" fill="none" xmlns="http://www.w3.org/2000/svg">
<circle cx="31.5" cy="31.5" r="30.5" fill="#007085" stroke="#052228" stroke-width="2"/>
<path fill-rule="evenodd" clip-rule="evenodd" d="M17.75 18.9375C17.4351 18.9375 17.133 19.0626 16.9103 19.2853C16.6876 19.508 16.5625 19.8101 16.5625 20.125V22.5C16.5625 22.8149 16.6876 23.117 16.9103 23.3397C17.133 23.5624 17.4351 23.6875 17.75 23.6875H20.125C20.4399 23.6875 20.742 23.5624 20.9647 23.3397C21.1874 23.117 21.3125 22.8149 21.3125 22.5V20.125C21.3125 19.8101 21.1874 19.508 20.9647 19.2853C20.742 19.0626 20.4399 18.9375 20.125 18.9375H17.75ZM20.125 20.125H17.75V22.5H20.125V20.125Z" fill="#E8EFFF"/>
<path d="M24.875 21.3125C24.875 20.9976 25.0001 20.6955 25.2228 20.4728C25.4455 20.2501 25.7476 20.125 26.0625 20.125H47.4375C47.7524 20.125 48.0545 20.2501 48.2772 20.4728C48.4999 20.6955 48.625 20.9976 48.625 21.3125C48.625 21.6274 48.4999 21.9295 48.2772 22.1522C48.0545 22.3749 47.7524 22.5 47.4375 22.5H26.0625C25.7476 22.5 25.4455 22.3749 25.2228 22.1522C25.0001 21.9295 24.875 21.6274 24.875 21.3125ZM26.0625 29.625C25.7476 29.625 25.4455 29.7501 25.2228 29.9728C25.0001 30.1955 24.875 30.4976 24.875 30.8125C24.875 31.1274 25.0001 31.4295 25.2228 31.6522C25.4455 31.8749 25.7476 32 26.0625 32H47.4375C47.7524 32 48.0545 31.8749 48.2772 31.6522C48.4999 31.4295 48.625 31.1274 48.625 30.8125C48.625 30.4976 48.4999 30.1955 48.2772 29.9728C48.0545 29.7501 47.7524 29.625 47.4375 29.625H26.0625ZM26.0625 39.125C25.7476 39.125 25.4455 39.2501 25.2228 39.4728C25.0001 39.6955 24.875 39.9976 24.875 40.3125C24.875 40.6274 25.0001 40.9295 25.2228 41.1522C25.4455 41.3749 25.7476 41.5 26.0625 41.5H47.4375C47.7524 41.5 48.0545 41.3749 48.2772 41.1522C48.4999 40.9295 48.625 40.6274 48.625 40.3125C48.625 39.9976 48.4999 39.6955 48.2772 39.4728C48.0545 39.2501 47.7524 39.125 47.4375 39.125H26.0625Z" fill="#E8EFFF"/>
<path fill-rule="evenodd" clip-rule="evenodd" d="M16.5625 29.625C16.5625 29.3101 16.6876 29.008 16.9103 28.7853C17.133 28.5626 17.4351 28.4375 17.75 28.4375H20.125C20.4399 28.4375 20.742 28.5626 20.9647 28.7853C21.1874 29.008 21.3125 29.3101 21.3125 29.625V32C21.3125 32.3149 21.1874 32.617 20.9647 32.8397C20.742 33.0624 20.4399 33.1875 20.125 33.1875H17.75C17.4351 33.1875 17.133 33.0624 16.9103 32.8397C16.6876 32.617 16.5625 32.3149 16.5625 32V29.625ZM17.75 29.625H20.125V32H17.75V29.625ZM17.75 37.9375C17.4351 37.9375 17.133 38.0626 16.9103 38.2853C16.6876 38.508 16.5625 38.8101 16.5625 39.125V41.5C16.5625 41.8149 16.6876 42.117 16.9103 42.3397C17.133 42.5624 17.4351 42.6875 17.75 42.6875H20.125C20.4399 42.6875 20.742 42.5624 20.9647 42.3397C21.1874 42.117 21.3125 41.8149 21.3125 41.5V39.125C21.3125 38.8101 21.1874 38.508 20.9647 38.2853C20.742 38.0626 20.4399 37.9375 20.125 37.9375H17.75ZM20.125 39.125H17.75V41.5H20.125V39.125Z" fill="#E8EFFF"/>
</svg>
