<svg width="11" height="11" viewBox="0 0 11 11" fill="none" xmlns="http://www.w3.org/2000/svg">
<path d="M6.0499 2.19999C6.0499 1.89578 5.80412 1.64999 5.4999 1.64999C5.19568 1.64999 4.9499 1.89578 4.9499 2.19999V4.94999H2.1999C1.89568 4.94999 1.6499 5.19578 1.6499 5.49999C1.6499 5.80421 1.89568 6.04999 2.1999 6.04999H4.9499V8.79999C4.9499 9.10421 5.19568 9.34999 5.4999 9.34999C5.80412 9.34999 6.0499 9.10421 6.0499 8.79999V6.04999H8.7999C9.10412 6.04999 9.3499 5.80421 9.3499 5.49999C9.3499 5.19578 9.10412 4.94999 8.7999 4.94999H6.0499V2.19999Z" fill="#E8EFFF"/>
</svg>
