<svg width="26" height="26" viewBox="0 0 26 26" fill="none" xmlns="http://www.w3.org/2000/svg">
<path d="M9.45346 2.83968L9.10003 3.9H5.20002C4.48096 3.9 3.90002 4.48093 3.90002 5.2C3.90002 5.91906 4.48096 6.5 5.20002 6.5H20.8C21.5191 6.5 22.1 5.91906 22.1 5.2C22.1 4.48093 21.5191 3.9 20.8 3.9H16.9L16.5466 2.83968C16.3678 2.3075 15.8722 1.95 15.3116 1.95H10.6885C10.1278 1.95 9.63221 2.3075 9.45346 2.83968ZM20.8 8.45H5.20002L6.05721 21.5759C6.12221 22.6037 6.97534 23.4 8.00315 23.4H17.9969C19.0247 23.4 19.8778 22.6037 19.9428 21.5759L20.8 8.45Z" fill="#722D2D"/>
</svg>
